<svg width="20" height="20" viewBox="0 0 20 20" fill="none" xmlns="http://www.w3.org/2000/svg">
<path fill-rule="evenodd" clip-rule="evenodd" d="M5.33435 1.125C3.00959 1.125 1.125 3.00959 1.125 5.33435V14.753C1.125 17.0778 3.00959 18.9624 5.33435 18.9624H14.753C17.0778 18.9624 18.9624 17.0778 18.9624 14.753V5.33435C18.9624 3.00959 17.0778 1.125 14.753 1.125H5.33435ZM0.125 5.33435C0.125 2.4573 2.4573 0.125 5.33435 0.125H14.753C17.6301 0.125 19.9624 2.4573 19.9624 5.33435V14.753C19.9624 17.6301 17.6301 19.9624 14.753 19.9624H5.33435C2.4573 19.9624 0.125 17.6301 0.125 14.753V5.33435ZM10.5639 6.77064C9.88404 6.66982 9.18972 6.78595 8.57969 7.10248C7.96965 7.41902 7.47495 7.91985 7.16596 8.53375C6.85697 9.14764 6.74942 9.84333 6.85861 10.5219C6.96779 11.2004 7.28816 11.8273 7.77413 12.3132C8.26011 12.7992 8.88694 13.1196 9.56548 13.2288C10.244 13.3379 10.9397 13.2304 11.5536 12.9214C12.1675 12.6124 12.6683 12.1177 12.9849 11.5077C13.3014 10.8976 13.4175 10.2033 13.3167 9.52349C13.2139 8.83003 12.8908 8.18803 12.395 7.69231C11.8993 7.1966 11.2573 6.87347 10.5639 6.77064ZM8.11911 6.21486C8.91585 5.80145 9.82266 5.64979 10.7106 5.78145C11.6162 5.91575 12.4547 6.33779 13.1022 6.98521C13.7496 7.63263 14.1716 8.47111 14.3059 9.3768C14.4376 10.2647 14.2859 11.1715 13.8725 11.9682C13.4591 12.765 12.805 13.4111 12.0032 13.8146C11.2014 14.2182 10.2928 14.3587 9.40661 14.2161C8.52041 14.0734 7.70173 13.655 7.06703 13.0203C6.43232 12.3856 6.01391 11.567 5.87131 10.6807C5.72871 9.79454 5.86917 8.88593 6.27273 8.08416C6.67628 7.28238 7.32238 6.62827 8.11911 6.21486ZM15.224 4.36342C14.9478 4.36342 14.724 4.58728 14.724 4.86342C14.724 5.13957 14.9478 5.36342 15.224 5.36342H15.2348C15.5109 5.36342 15.7348 5.13957 15.7348 4.86342C15.7348 4.58728 15.5109 4.36342 15.2348 4.36342H15.224Z" fill="#FCA311"/>
</svg>
