<svg width="22" height="18" viewBox="0 0 22 18" fill="none" xmlns="http://www.w3.org/2000/svg">
<path d="M20.8611 1.25911C19.9966 1.87083 19.0394 2.33869 18.0264 2.64469C17.4827 2.01757 16.7601 1.57307 15.9563 1.37134C15.1526 1.1696 14.3065 1.22034 13.5324 1.51671C12.7584 1.81308 12.0937 2.34077 11.6284 3.02841C11.163 3.71606 10.9194 4.53048 10.9306 5.36153V6.26714C9.34404 6.3084 7.77198 5.95544 6.35438 5.23967C4.93678 4.52391 3.71765 3.46756 2.80556 2.16472C2.80556 2.16472 -0.805555 10.3152 7.31944 13.9377C5.4602 15.2037 3.24535 15.8385 1 15.7489C9.125 20.2769 19.0556 15.7489 19.0556 5.33436C19.0547 5.0821 19.0305 4.83047 18.9833 4.5827C19.9047 3.6712 20.5549 2.52036 20.8611 1.25911V1.25911Z" stroke="#FCA311" stroke-linecap="round" stroke-linejoin="round"/>
</svg>
